<svg xmlns="http://www.w3.org/2000/svg" version="1.1" xmlns:xlink="http://www.w3.org/1999/xlink" xmlns:svgjs="http://svgjs.dev/svgjs" width="2000" height="1500" viewBox="0 0 2000 1500"><rect width="2000" height="1500" fill="#003366"></rect><g transform="matrix(0.75,0,0,0.75,249.09102117376972,527.3407984615568)"><svg viewBox="0 0 396 118" data-background-color="#003366" preserveAspectRatio="xMidYMid meet" height="595" width="2000" xmlns="http://www.w3.org/2000/svg" xmlns:xlink="http://www.w3.org/1999/xlink"><g id="tight-bounds" transform="matrix(1,0,0,1,0.23997041012478348,-0.12316911700548872)"><svg viewBox="0 0 395.52 118.24627905426043" height="118.24627905426043" width="395.52"><g><svg viewBox="0 0 615.0568270120125 183.87990797201257" height="118.24627905426043" width="395.52"><g transform="matrix(1,0,0,1,0,54.17995398600629)"><svg viewBox="0 0 395.52 75.52" height="75.52" width="395.52"><g id="textblocktransform"><svg viewBox="0 0 395.52 75.52" height="75.52" width="395.52" id="textblock"><g><svg viewBox="0 0 395.52 75.52" height="75.52" width="395.52"><g transform="matrix(1,0,0,1,0,0)"><svg width="395.52" viewBox="0.9 -35.7 218.48 41.300000000000004" height="75.52" data-palette-color="#ffffff"><g class="wordmark-text-0" data-fill-palette-color="primary" id="text-0"><path d="M1.4-3.35L1.4-3.35Q1.4-8.75 4.6-14.05L4.6-14.05Q0.9-16.4 0.9-21L0.9-21Q0.9-26.55 5.8-30.85L5.8-30.85Q11.3-35.7 20-35.7L20-35.7Q24-35.7 28.6-34.55L28.6-34.55Q29.65-34.3 37.55-30.68 45.45-27.05 48.9-27.05L48.9-27.05Q51.2-27.05 52.35-28.35L52.35-28.35Q52.95-29 52.95-29.75 52.95-30.5 52.3-31.1L52.3-31.1Q51.95-31.6 51.95-31.75 51.95-31.9 52.23-31.9 52.5-31.9 53.18-31.03 53.85-30.15 53.85-28.98 53.85-27.8 52.28-26.73 50.7-25.65 48.3-25.65L48.3-25.65Q44.55-25.65 36.65-29.28 28.75-32.9 26.73-33.3 24.7-33.7 22.1-33.7L22.1-33.7Q11.75-33.7 5.8-27L5.8-27Q5.1-26.25 4.15-23.98 3.2-21.7 3.2-19.6L3.2-19.6Q3.2-16.7 5.25-15.1L5.25-15.1Q7.85-18.9 11.4-21.15 14.95-23.4 18.6-23.4L18.6-23.4Q23.1-23.4 23.1-19.9L23.1-19.9Q23.1-15.7 18.18-10.78 13.25-5.85 9.05-5.85L9.05-5.85Q6.35-5.85 6.35-8.15L6.35-8.15Q6.35-8.95 6.78-9.55 7.2-10.15 7.8-10L7.8-10 7.7-8.85Q7.7-8.1 10-8.1L10-8.1Q13.4-8.1 17.18-11.6 20.95-15.1 21.75-18.45L21.75-18.45Q21.95-19.2 21.95-19.8L21.95-19.8Q21.95-22.05 19.07-22.05 16.2-22.05 13.13-19.85 10.05-17.65 7.35-14.05L7.35-14.05Q7.55-13.95 8.9-13.65L8.9-13.65 11.9-13.55Q14.1-13.45 14.1-13.05L14.1-13.05Q14.1-12.35 12-12.35L12-12.35Q11.85-12.35 11.7-12.35L11.7-12.35Q8.65-12.35 6.7-13.1L6.7-13.1Q2.85-7.2 2.85-2.25L2.85-2.25Q2.85 4.15 7.8 4.15L7.8 4.15Q13.4 4.15 19.45-3.65L19.45-3.65 29.25-18.25Q34.75-26.25 38.8-26.45L38.8-26.45 40.7-26Q41.6-25.5 41.6-24.5 41.6-23.5 41.1-23.5L41.1-23.5 39.5-23.75Q36.05-23.75 30.65-16.3L30.65-16.3 20.7-2.4Q14.3 5.05 8.45 5.05L8.45 5.05Q4.45 5.05 2.93 2.9 1.4 0.75 1.4-3.35ZM35.6 0.65L35.6 0.65Q35.05 0.65 34.6 0.5L34.6 0.5Q31.4-0.4 31.4-3.1L31.4-3.1Q31.4-6.6 35.8-11.2 40.2-15.8 43.7-15.8L43.7-15.8Q44.85-15.8 45.57-15.18 46.3-14.55 46.3-13.65L46.3-13.65Q46.3-10.85 42.07-8.3 37.85-5.75 35.2-5.75L35.2-5.75Q34.8-5.75 34.5-5.85L34.5-5.85Q33.75-4.5 33.75-3L33.75-3Q33.75-0.4 36.22-0.4 38.7-0.4 42.65-3.75L42.65-3.75Q45.7-6.2 47.85-8.95L47.85-8.95Q48.3-9.55 48.62-9.55 48.95-9.55 48.95-9.25 48.95-8.95 48.55-8.4L48.55-8.4Q45.85-4.85 42.05-2.1 38.25 0.65 35.6 0.65ZM45.05-13.75L45.05-13.75Q45.05-14.35 43.77-14.35 42.5-14.35 40.15-12.4L40.15-12.4Q37-9.8 35.25-6.95L35.25-6.95Q35.55-6.85 35.9-6.85L35.9-6.85Q37.8-6.85 40.97-8.88 44.15-10.9 44.95-13.3L44.95-13.3Q45.05-13.55 45.05-13.75ZM49.7 0.65L49.7 0.65Q49.15 0.65 48.7 0.5L48.7 0.5Q45.5-0.4 45.5-3.1L45.5-3.1Q45.5-6.6 49.9-11.2 54.3-15.8 57.8-15.8L57.8-15.8Q58.95-15.8 59.67-15.18 60.4-14.55 60.4-13.48 60.4-12.4 59.75-11.23 59.1-10.05 57.8-10.05 56.5-10.05 56.5-10.85L56.5-10.85Q56.5-11.4 57.17-12.53 57.85-13.65 57.85-13.73 57.85-13.8 57.7-13.8L57.7-13.8Q56.3-13.65 53.87-11.8 51.45-9.95 50.55-8.7L50.55-8.7 48.6-5.85Q48.1-5.05 47.87-3.95 47.65-2.85 47.65-2.3 47.65-1.75 48.27-1.05 48.9-0.35 50.05-0.35L50.05-0.35Q52.55-0.35 56.25-3.28 59.95-6.2 61.95-8.85L61.95-8.85Q62.2-9.15 62.55-9.15 62.9-9.15 62.9-8.95 62.9-8.75 62.65-8.45L62.65-8.45Q59.9-4.8 56.07-2.08 52.25 0.65 49.7 0.65ZM71.89-0.2L71.89-0.2Q68.94-0.2 68.94-3.65L68.94-3.65Q68.94-5.6 70.32-7.98 71.69-10.35 73.69-13.55L73.69-13.55Q67.29-10.35 62.09-4.1L62.09-4.1Q59.19 0.25 58.69 0.25L58.69 0.25Q57.24 0.25 57.24-0.6L57.24-0.6Q57.24-1.05 57.84-2.2L57.84-2.2Q62.69-10.85 65.19-14.85L65.19-14.85Q71.14-24.4 73.59-25.2L73.59-25.2Q73.69-25.25 73.79-25.25L73.79-25.25Q74.44-25.25 74.69-24.2L74.69-24.2Q74.54-23.15 69.49-16.6L69.49-16.6Q64.24-9.95 63.54-7.9L63.54-7.9Q65.39-9.25 69.99-12.45L69.99-12.45Q74.94-15.9 76.54-15.9 78.14-15.9 78.14-14.65L78.14-14.65Q78.14-14.45 78.12-14.38 78.09-14.3 74.64-9.65 71.19-5 71.19-2.8L71.19-2.8Q71.19-1.65 72.04-1.65L72.04-1.65Q74.74-1.75 80.14-8.15L80.14-8.15Q80.59-8.6 80.82-8.6 81.04-8.6 81.04-8.3L81.04-8.3Q81.04-7.3 76.09-2.9L76.09-2.9Q72.99-0.2 71.89-0.2Z" fill="#ffffff" data-fill-palette-color="primary"></path><path d="M122.59-1.35L122.59-1.35Q122.59 2 125.94 2L125.94 2Q130.44 2 136.79-4.5L136.79-4.5Q142.54-10.3 145.56-16.32 148.59-22.35 148.59-25.5L148.59-25.5Q148.59-26 148.49-26.5L148.49-26.5Q147.39-26.5 146.24-27.65L146.24-27.65 146.24-27.6Q145.49-28.2 145.49-28.83 145.49-29.45 145.99-29.85 146.49-30.25 147.29-30.25 148.09-30.25 148.41-29.63 148.74-29 149.24-28.5 149.74-28 149.69-27.8L149.69-27.8Q149.99-27.35 150.61-27.35 151.24-27.35 152.04-27.95 152.84-28.55 153.31-28.55 153.79-28.55 153.79-28.25L153.79-28.25Q153.79-27.7 152.84-27.2L152.84-27.2Q152.34-26.8 151.64-26.75L151.64-26.75 150.04-26.75Q150.64-24.7 150.64-23.8L150.64-23.8Q150.64-19.8 146.81-13.4 142.99-7 136.99-2.05L136.99-2.05Q130.94 3.05 126.01 3.05 121.09 3.05 121.09-1.75L121.09-1.75Q121.09-5.55 124.29-12.6L124.29-12.6 127.89-20.45 122.99-16.65Q120.69-14.75 118.31-12.48 115.94-10.2 110.04-3.1L110.04-3.1 104.24 4Q102.84 5.6 101.74 5.6L101.74 5.6Q100.89 5.6 100.89 4.5 100.89 3.4 101.79 1.65L101.79 1.65 111.44-12.25Q120.19-25.1 120.19-28.55L120.19-28.55Q120.19-30.45 116.69-30.45L116.69-30.45Q112.44-30.45 104.84-25.25L104.84-25.25Q100.74-22.45 97.64-18.23 94.54-14 94.54-11.23 94.54-8.45 98.24-8.45L98.24-8.45Q101.69-8.45 105.34-11.65L105.34-11.65Q106.64-12.75 106.84-12.75 107.04-12.75 106.99-12.4L106.99-12.4Q106.44-10.5 102.91-8.78 99.39-7.05 96.69-7.05L96.69-7.05Q95.99-7.05 95.74-7.1L95.74-7.1 95.69-7.1Q91.69-7.95 91.69-11.05 91.69-14.15 95.14-18.5L95.14-18.5Q101.24-26.2 110.84-29.95L110.84-29.95Q115.79-31.85 118.99-31.85L118.99-31.85Q122.94-31.85 122.94-29.25L122.94-29.25Q122.94-23.85 109.34-5.8L109.34-5.8Q104.79 0.25 104.74 0.25L104.74 0.25Q104.89 0.25 109.96-5.4 115.04-11.05 119.59-15.05L119.59-15.05Q121.34-16.6 125.64-20.75L125.64-20.75Q127.89-22.85 130.49-24.55L130.49-24.55Q131.14-24.95 132.36-24.95 133.59-24.95 134.04-24.25L134.04-24.25Q129.44-18.55 126.01-11.48 122.59-4.4 122.59-1.35ZM151.69-26.75L151.64-26.75 151.69-26.75ZM160.74-10.6L160.74-10.6Q160.74-8.85 157.39-4.75L157.39-4.75Q153.44 0.1 150.64 0.1L150.64 0.1 149.84 0.1Q148.54 0.1 147.79-1.25L147.79-1.25Q147.19-2.2 147.19-3.35L147.19-3.35Q147.19-6.35 151.56-11.78 155.94-17.2 158.64-17.2L158.64-17.2Q161.19-17.2 161.19-14.5L161.19-14.5Q161.19-13.8 160.94-12.7L160.94-12.7Q160.99-12.55 161.89-12.55 162.79-12.55 164.64-13.5L164.64-13.5Q164.59-12.65 160.69-11.05L160.69-11.05Q160.74-10.85 160.74-10.6ZM157.49-13.2L157.49-13.2Q155.79-13.2 152.66-9.2 149.54-5.2 149.54-3.3 149.54-1.4 150.74-1.4L150.74-1.4Q152.89-1.4 156.19-5.3 159.49-9.2 159.49-10.9L159.49-10.9Q158.69-11.35 157.49-13.2ZM171.93 0.25L171.93 0.25Q168.18 0.25 168.18-3.9L168.18-3.9Q168.18-6 169.28-8.5 170.38-11 171.68-12.7L171.68-12.7Q171.43-12.65 171.03-12.65L171.03-12.65Q169.83-12.65 169.03-14.35L169.03-14.35 165.33-9.55Q162.23-5.7 161.73-5.7L161.73-5.7Q161.48-5.7 161.48-5.9L161.48-5.9Q161.48-6.4 162.33-7.35L162.33-7.35Q166.68-12.4 168.48-15.9L168.48-15.9Q169.63-20.25 171.38-20.25L171.38-20.25Q172.53-20.25 172.53-19.25 172.53-18.25 171.28-16.7L171.28-16.7 170.08-15.1Q170.08-14.05 171.63-14.05L171.63-14.05Q172.53-14.05 173.63-14.7L173.63-14.7 174.93-15.5Q175.03-15.55 175.43-15.55 175.83-15.55 176.28-15.05 176.73-14.55 176.58-14.15L176.58-14.15 173.13-9.8Q169.93-5.7 169.93-3.33 169.93-0.95 172.13-0.95L172.13-0.95Q174.43-0.95 177.78-3.4L177.78-3.4Q179.78-4.85 181.43-6.65L181.43-6.65Q182.98-8.45 183.13-8.45L183.13-8.45Q183.48-8.45 183.48-8.08 183.48-7.7 183.03-7.2L183.03-7.2 181.43-5.4Q180.08-4 178.43-2.7L178.43-2.7Q174.48 0.25 171.93 0.25ZM183.38-2.5Q183.38-1 185.03-1 186.68-1 189.28-2.75 191.88-4.5 194.33-7.5L194.33-7.5Q194.93-8.3 195.28-8.3 195.63-8.3 195.63-8L195.63-8Q195.63-7.7 193.58-5.4L193.58-5.4Q188.58 0.1 185.23 0.1L185.23 0.1Q183.58 0.1 182.43-0.68 181.28-1.45 181.28-3.08 181.28-4.7 182.13-6.85L182.13-6.85Q183.58-10.25 186.78-15.4L186.78-15.4Q192.63-24.9 195.08-24.9L195.08-24.9Q195.58-24.9 196.11-24.53 196.63-24.15 196.68-23.7L196.68-23.7Q195.53-22.15 192.26-17.75 188.98-13.35 187.73-11.43 186.48-9.5 185.86-8.55 185.23-7.6 184.93-7.08 184.63-6.55 184.23-5.7L184.23-5.7Q183.38-4 183.38-2.5ZM209.98-15.15L209.98-15.15Q215.58-24.25 217.78-24.25L217.78-24.25Q218.13-24.25 218.75-24.03 219.38-23.8 219.38-23.35L219.38-23.35Q219.38-23.1 219.13-22.7L219.13-22.7Q215.13-17.8 213.18-15.35L213.18-15.35Q207.28-7.9 206.68-4.65L206.68-4.65Q206.53-3.95 206.53-3.25L206.53-3.25Q206.53-1 208.38-1L208.38-1Q212.08-1 218.03-7.85L218.03-7.85Q218.53-8.35 218.88-8.43 219.23-8.5 219.23-8.25 219.23-8 218.93-7.65L218.93-7.65Q213.13-0.7 208.63 0.1L208.63 0.1Q208.38 0.15 207.93 0.15L207.93 0.15Q206.38 0.15 205.6-0.93 204.83-2 204.83-3.25L204.83-3.25Q204.83-4.65 205.38-6.35L205.38-6.35 201.33-2.3Q198.58 0.25 197 0.25 195.43 0.25 194.38-0.6L194.38-0.6Q193.13-1.55 193.13-3.25L193.13-3.25Q193.13-6.9 198.23-11.98 203.33-17.05 207.58-17.05L207.58-17.05Q208.98-17.05 209.53-16.3L209.53-16.3Q209.73-16.05 209.98-15.15ZM195.23-2.65L195.23-2.65Q195.23-0.85 196.48-0.85L196.48-0.85Q198.63-0.85 203.63-6.75L203.63-6.75Q204.53-7.8 209.63-14.6L209.63-14.6Q209.28-15.2 208.43-15.2L208.43-15.2Q205.33-15.2 200.28-10.48 195.23-5.75 195.23-2.65Z" fill="#ff9966" data-fill-palette-color="secondary"></path></g></svg></g></svg></g></svg></g></svg></g><g transform="matrix(1,0,0,1,431.17691904,0)"><svg viewBox="0 0 183.87990797201257 183.87990797201257" height="183.87990797201257" width="183.87990797201257"><g><svg></svg></g><g id="icon-0"><svg viewBox="0 0 183.87990797201257 183.87990797201257" height="183.87990797201257" width="183.87990797201257"><g><path d="M0 91.94c0-50.777 41.163-91.94 91.94-91.94 50.777 0 91.94 41.163 91.94 91.94 0 50.777-41.163 91.94-91.94 91.94-50.777 0-91.94-41.163-91.94-91.94zM91.94 177.069c47.016 0 85.129-38.114 85.129-85.129 0-47.016-38.114-85.129-85.129-85.13-47.016 0-85.129 38.114-85.13 85.13 0 47.016 38.114 85.129 85.13 85.129z" data-fill-palette-color="accent" fill="#ff9966" stroke="transparent"></path></g><g transform="matrix(1,0,0,1,38.73447183583893,51.89665857695734)"><svg viewBox="0 0 106.41096430033471 80.08659081809789" height="80.08659081809789" width="106.41096430033471"><g><svg xmlns="http://www.w3.org/2000/svg" xmlns:xlink="http://www.w3.org/1999/xlink" version="1.1" x="0" y="0" viewBox="10.074798390981691 70.9 491.88538910120485 370.20079787234056" style="enable-background:new 0 0 512 512;" xml:space="preserve" height="80.08659081809789" width="106.41096430033471" class="icon-cg-0" data-fill-palette-color="accent" id="cg-0"><g fill="#ff9966" data-fill-palette-color="accent"><path d="M255 152.6c19.3 0 35-15.7 35-35.1v-11.6c0-19.3-15.7-35-35-35s-35 15.7-35 35v11.6C220 136.8 235.6 152.5 255 152.6z" fill="#ff9966" data-fill-palette-color="accent"></path><path d="M501.1 262.4c-2.8-10.4-12.3-17.6-23-17.6-6.4 0-12.4 2.6-16.9 7.2-3 3.1-5.1 6.9-6.2 11H334v-32h25.1c13.3 0.1 24.1-10.6 24.2-23.9 0 0 0 0 0-0.1 0-6.7 5.4-12 12.1-12 0 0 0.1 0 0.1 0h33.7c1.1 4 3.2 7.7 6.2 10.6 9.3 9.4 24.5 9.4 33.8 0.1 9.4-9.3 9.4-24.5 0.1-33.8-9.3-9.4-24.5-9.4-33.8-0.1 0 0-0.1 0.1-0.1 0.1-3.2 2.9-5.4 6.8-6.2 11.1h-33.7c-13.3-0.1-24.1 10.6-24.2 23.9 0 0 0 0 0 0.1 0 6.7-5.4 12-12.1 12 0 0-0.1 0-0.1 0H334v-25c0.1-2.8 0-5.6-0.3-8.4 11.7-0.4 22.1-7.8 26.1-18.8l11.8-31.9c2.5-6.6 8.8-11 15.8-11h3.1c0.8 4.9 3.1 9.4 6.7 12.9 9.3 9.3 24.4 9.3 33.8 0 9.3-9.3 9.3-24.4 0-33.8-9.3-9.3-24.4-9.3-33.8 0 0 0 0 0 0 0-2.4 2.6-4.3 5.6-5.6 8.9h-4.2c-12.1 0-22.9 7.5-27.1 18.8l-11.8 32c-2.5 6.6-8.8 11.1-15.8 11.1h-3c-1.1-2.1-2.4-4.1-3.9-6-6.1-7.4-14.9-12.1-24.4-13-0.4 0-1.3 0-26.8 0h0c-2.1-0.1-4.1 1-5.2 2.8l-13.5 23.5L243 157.9c-1.1-1.9-3.1-3-5.3-2.9h-24.1c-9.6-0.1-18.8 3.7-25.6 10.5-2.5 2.5-4.7 5.4-6.4 8.5h-2.4c-7.1-0.1-13.4-4.5-15.8-11.2l-11.8-32c-4.2-11.3-15-18.8-27.1-18.9h-4.2c-1.3-3.3-3.2-6.3-5.6-8.9-9.3-9.3-24.4-9.2-33.7 0.1-9.3 9.3-9.2 24.4 0.1 33.7 9.3 9.2 24.3 9.2 33.6 0 3.5-3.5 5.9-8 6.7-12.9h3.1c7.1 0 13.4 4.4 15.8 11l11.8 31.9c4 10.8 14.1 18.2 25.6 18.8-0.2 1.7-0.4 3.4-0.4 5.1 0 0.4 0 13.2 0.1 28.2h-24.6c-6.7 0.1-12.1-5.2-12.2-11.9 0 0 0-0.1 0-0.1 0-13.3-10.8-24-24.1-24 0 0 0 0-0.1 0H82.8c-0.8-4.3-3-8.2-6.2-11.1-9.3-9.3-24.4-9.4-33.7-0.1-9.3 9.3-9.3 24.3-0.1 33.6 0 0 0 0 0.1 0.1 4.5 4.5 10.7 7 17.1 7 6.4-0.1 12.5-2.6 17.1-7v0.2c2.9-3 4.9-6.6 5.8-10.6h33.7c6.7-0.1 12.1 5.2 12.2 11.9 0 0 0 0.1 0 0.1 0 13.3 10.8 24 24.1 24 0 0 0 0 0.1 0h24.6c0 13 0.1 26 0.1 32H56.9c-1.1-4.2-3.2-8-6.2-11-9.3-9.3-24.3-9.4-33.6-0.1s-9.4 24.3-0.1 33.6c4.5 4.5 10.6 7 16.9 7 10.8 0.1 20.3-7.1 23.1-17.5h122.9c1.1 2.1 2.6 4.1 4.3 5.8 4.1 4.1 9.8 6.3 15.6 6.2h0.3c3.6-0.1 7.2-1.1 10.3-2.9l0.7 21.9h-57.9c-13.4 0.2-24.2 11.1-24.2 24.5 0 6.8-5.4 12.3-12.2 12.5H82.8c-1.1-4.1-3.2-7.9-6.2-11-9.3-9.3-24.4-9.3-33.7-0.1-9.3 9.3-9.3 24.5 0 33.8 9.3 9.3 24.5 9.3 33.8 0 3-3 5.1-6.6 6.2-10.7h33.7c13.4-0.2 24.2-11.1 24.2-24.5 0-6.8 5.4-12.3 12.2-12.5h58.3l1 34h-32.9c-12-0.1-22.9 7.4-27.1 18.6l-11.8 31.6c-2.5 6.5-8.8 10.8-15.8 10.7h-3.1c-1-4.8-3.3-9.2-6.7-12.7-9.3-9.5-24.5-9.6-34-0.3s-9.6 24.5-0.3 34c9.3 9.5 24.5 9.6 34 0.3 0.1-0.1 0.2-0.2 0.3-0.3 2.7-2.4 4.6-5.6 5.6-9h4.2c12 0.1 22.9-7.4 27.1-18.7l11.8-31.6c2.5-6.5 8.8-10.8 15.8-10.7h33.2l1.6 53.1c0 0.1 0 0.3 0 0.4 0.7 7.7 7.2 13.6 15 13.5h53.6c7.8 0 14.3-5.9 15-13.7 0-0.1 0-0.2 0-0.2l1.5-53.1h33.5c7-0.1 13.4 4.2 15.8 10.8l11.8 31.6c4.3 11.2 15.1 18.6 27.1 18.6h4.2c1 3.5 2.9 6.6 5.6 9 9.2 9.4 24.3 9.4 33.7 0.2 0 0 0 0 0.1-0.1 9.3-9.3 9.3-24.4 0-33.7 0 0 0 0 0 0-9.3-9.4-24.4-9.4-33.7-0.2-3.4 3.5-5.7 8-6.7 12.7h-3.1c-7 0.1-13.3-4.3-15.8-10.8l-11.8-31.6c-4.3-11.2-15.1-18.6-27.1-18.5h-33.2l0.9-34h58.6c6.8 0.2 12.2 5.7 12.2 12.5 0 13.4 10.8 24.3 24.2 24.5h33.7c3.3 12.7 16.4 20.4 29.1 17 12.7-3.3 20.4-16.4 17-29.1-1.1-4.2-3.3-8-6.4-11-9.3-9.3-23.9-9.3-33.9 0v0.1c-2.9 3.1-4.9 6.9-5.8 11h-33.7c-6.8-0.2-12.2-5.7-12.2-12.5 0-13.4-10.8-24.3-24.2-24.5h-58.3l0.6-21.6c3.2 1.8 6.7 2.8 10.3 2.8 8.4-0.1 16-4.8 19.9-12.2H455c3.5 12.7 16.6 20.2 29.4 16.7C497.1 288.2 504.6 275.1 501.1 262.4z" fill="#ff9966" data-fill-palette-color="accent"></path></g></svg></g></svg></g></svg></g></svg></g></svg></g><defs></defs></svg><rect width="395.52" height="118.24627905426043" fill="none" stroke="none" visibility="hidden"></rect></g></svg></g></svg>